<mxfile host="Electron" agent="Mozilla/5.0 (Windows NT 10.0; Win64; x64) AppleWebKit/537.36 (KHTML, like Gecko) draw.io/24.7.8 Chrome/128.0.6613.36 Electron/32.0.1 Safari/537.36" version="24.7.8">
  <diagram name="Page-1" id="T92FBhb6KO-Yt_Mc2dn9">
    <mxGraphModel dx="1036" dy="606" grid="1" gridSize="10" guides="1" tooltips="1" connect="1" arrows="1" fold="1" page="1" pageScale="1" pageWidth="850" pageHeight="1100" math="0" shadow="0">
      <root>
        <mxCell id="0" />
        <mxCell id="1" parent="0" />
        <mxCell id="JCoDcRMyfYpPFS9yvbfT-1" value="user medical" style="shape=umlActor;verticalLabelPosition=bottom;verticalAlign=top;html=1;outlineConnect=0;" parent="1" vertex="1">
          <mxGeometry x="80" y="350" width="70" height="140" as="geometry" />
        </mxCell>
        <mxCell id="JCoDcRMyfYpPFS9yvbfT-3" value="user patient" style="shape=umlActor;verticalLabelPosition=bottom;verticalAlign=top;html=1;outlineConnect=0;" parent="1" vertex="1">
          <mxGeometry x="80" y="760" width="70" height="140" as="geometry" />
        </mxCell>
        <mxCell id="JCoDcRMyfYpPFS9yvbfT-4" value="se connecter" style="ellipse;whiteSpace=wrap;html=1;" parent="1" vertex="1">
          <mxGeometry x="305" y="230" width="175" height="80" as="geometry" />
        </mxCell>
        <mxCell id="JCoDcRMyfYpPFS9yvbfT-5" value="enregistrer des exercices" style="ellipse;whiteSpace=wrap;html=1;" parent="1" vertex="1">
          <mxGeometry x="520" y="330" width="165" height="80" as="geometry" />
        </mxCell>
        <mxCell id="JCoDcRMyfYpPFS9yvbfT-6" value="creer des profils patients" style="ellipse;whiteSpace=wrap;html=1;" parent="1" vertex="1">
          <mxGeometry x="560" y="450" width="155" height="80" as="geometry" />
        </mxCell>
        <mxCell id="JCoDcRMyfYpPFS9yvbfT-7" value="se connecter" style="ellipse;whiteSpace=wrap;html=1;" parent="1" vertex="1">
          <mxGeometry x="315" y="820" width="155" height="80" as="geometry" />
        </mxCell>
        <mxCell id="JCoDcRMyfYpPFS9yvbfT-8" value="faire les exercices dÃ©fini par le profil medical" style="ellipse;whiteSpace=wrap;html=1;" parent="1" vertex="1">
          <mxGeometry x="315" y="950" width="155" height="80" as="geometry" />
        </mxCell>
        <mxCell id="JCoDcRMyfYpPFS9yvbfT-9" value="calculer les resultats des patients (+feedback)" style="ellipse;whiteSpace=wrap;html=1;" parent="1" vertex="1">
          <mxGeometry x="520" y="580" width="155" height="80" as="geometry" />
        </mxCell>
        <mxCell id="JCoDcRMyfYpPFS9yvbfT-10" value="" style="endArrow=none;html=1;rounded=0;" parent="1" source="JCoDcRMyfYpPFS9yvbfT-1" target="JCoDcRMyfYpPFS9yvbfT-4" edge="1">
          <mxGeometry width="50" height="50" relative="1" as="geometry">
            <mxPoint x="570" y="720" as="sourcePoint" />
            <mxPoint x="620" y="670" as="targetPoint" />
          </mxGeometry>
        </mxCell>
        <mxCell id="JCoDcRMyfYpPFS9yvbfT-11" value="" style="endArrow=none;html=1;rounded=0;" parent="1" source="JCoDcRMyfYpPFS9yvbfT-1" target="JCoDcRMyfYpPFS9yvbfT-5" edge="1">
          <mxGeometry width="50" height="50" relative="1" as="geometry">
            <mxPoint x="160" y="422" as="sourcePoint" />
            <mxPoint x="323" y="387" as="targetPoint" />
          </mxGeometry>
        </mxCell>
        <mxCell id="JCoDcRMyfYpPFS9yvbfT-12" value="" style="endArrow=none;html=1;rounded=0;" parent="1" source="JCoDcRMyfYpPFS9yvbfT-1" target="JCoDcRMyfYpPFS9yvbfT-6" edge="1">
          <mxGeometry width="50" height="50" relative="1" as="geometry">
            <mxPoint x="160" y="432" as="sourcePoint" />
            <mxPoint x="541" y="455" as="targetPoint" />
          </mxGeometry>
        </mxCell>
        <mxCell id="JCoDcRMyfYpPFS9yvbfT-13" value="" style="endArrow=none;html=1;rounded=0;" parent="1" source="JCoDcRMyfYpPFS9yvbfT-1" target="JCoDcRMyfYpPFS9yvbfT-9" edge="1">
          <mxGeometry width="50" height="50" relative="1" as="geometry">
            <mxPoint x="170" y="442" as="sourcePoint" />
            <mxPoint x="505" y="567" as="targetPoint" />
          </mxGeometry>
        </mxCell>
        <mxCell id="JCoDcRMyfYpPFS9yvbfT-14" value="" style="endArrow=none;html=1;rounded=0;" parent="1" source="JCoDcRMyfYpPFS9yvbfT-3" target="JCoDcRMyfYpPFS9yvbfT-7" edge="1">
          <mxGeometry width="50" height="50" relative="1" as="geometry">
            <mxPoint x="160" y="457" as="sourcePoint" />
            <mxPoint x="434" y="667" as="targetPoint" />
          </mxGeometry>
        </mxCell>
        <mxCell id="JCoDcRMyfYpPFS9yvbfT-15" value="" style="endArrow=none;html=1;rounded=0;" parent="1" source="JCoDcRMyfYpPFS9yvbfT-3" target="JCoDcRMyfYpPFS9yvbfT-8" edge="1">
          <mxGeometry width="50" height="50" relative="1" as="geometry">
            <mxPoint x="160" y="844" as="sourcePoint" />
            <mxPoint x="327" y="862" as="targetPoint" />
          </mxGeometry>
        </mxCell>
        <mxCell id="JCoDcRMyfYpPFS9yvbfT-17" value="&amp;lt;&amp;lt;include&amp;gt;&amp;gt;" style="html=1;verticalAlign=bottom;labelBackgroundColor=none;endArrow=open;endFill=0;dashed=1;rounded=0;" parent="1" source="JCoDcRMyfYpPFS9yvbfT-5" target="JCoDcRMyfYpPFS9yvbfT-4" edge="1">
          <mxGeometry width="160" relative="1" as="geometry">
            <mxPoint x="510" y="690" as="sourcePoint" />
            <mxPoint x="670" y="690" as="targetPoint" />
          </mxGeometry>
        </mxCell>
        <mxCell id="JCoDcRMyfYpPFS9yvbfT-18" value="&amp;lt;&amp;lt;include&amp;gt;&amp;gt;" style="html=1;verticalAlign=bottom;labelBackgroundColor=none;endArrow=open;endFill=0;dashed=1;rounded=0;" parent="1" source="JCoDcRMyfYpPFS9yvbfT-6" target="JCoDcRMyfYpPFS9yvbfT-4" edge="1">
          <mxGeometry width="160" relative="1" as="geometry">
            <mxPoint x="559" y="434" as="sourcePoint" />
            <mxPoint x="468" y="397" as="targetPoint" />
          </mxGeometry>
        </mxCell>
        <mxCell id="JCoDcRMyfYpPFS9yvbfT-19" value="&amp;lt;&amp;lt;include&amp;gt;&amp;gt;" style="html=1;verticalAlign=bottom;labelBackgroundColor=none;endArrow=open;endFill=0;dashed=1;rounded=0;" parent="1" source="JCoDcRMyfYpPFS9yvbfT-9" target="JCoDcRMyfYpPFS9yvbfT-4" edge="1">
          <mxGeometry width="160" relative="1" as="geometry">
            <mxPoint x="540" y="553" as="sourcePoint" />
            <mxPoint x="431" y="408" as="targetPoint" />
          </mxGeometry>
        </mxCell>
        <mxCell id="JCoDcRMyfYpPFS9yvbfT-20" value="&amp;lt;&amp;lt;include&amp;gt;&amp;gt;" style="html=1;verticalAlign=bottom;labelBackgroundColor=none;endArrow=open;endFill=0;dashed=1;rounded=0;" parent="1" source="JCoDcRMyfYpPFS9yvbfT-8" target="JCoDcRMyfYpPFS9yvbfT-7" edge="1">
          <mxGeometry width="160" relative="1" as="geometry">
            <mxPoint x="469" y="660" as="sourcePoint" />
            <mxPoint x="412" y="410" as="targetPoint" />
          </mxGeometry>
        </mxCell>
        <mxCell id="lfXVD4r1HzzU5zf0WYeT-1" value="&quot;Donner&quot; des exercices aux patients" style="ellipse;whiteSpace=wrap;html=1;" vertex="1" parent="1">
          <mxGeometry x="350" y="640" width="155" height="80" as="geometry" />
        </mxCell>
        <mxCell id="lfXVD4r1HzzU5zf0WYeT-2" value="" style="endArrow=none;html=1;rounded=0;" edge="1" parent="1" source="JCoDcRMyfYpPFS9yvbfT-1" target="lfXVD4r1HzzU5zf0WYeT-1">
          <mxGeometry width="50" height="50" relative="1" as="geometry">
            <mxPoint x="400" y="540" as="sourcePoint" />
            <mxPoint x="450" y="490" as="targetPoint" />
          </mxGeometry>
        </mxCell>
        <mxCell id="lfXVD4r1HzzU5zf0WYeT-3" value="&amp;lt;&amp;lt;include&amp;gt;&amp;gt;" style="html=1;verticalAlign=bottom;labelBackgroundColor=none;endArrow=open;endFill=0;dashed=1;rounded=0;" edge="1" parent="1" source="lfXVD4r1HzzU5zf0WYeT-1" target="JCoDcRMyfYpPFS9yvbfT-4">
          <mxGeometry width="160" relative="1" as="geometry">
            <mxPoint x="585" y="592" as="sourcePoint" />
            <mxPoint x="425" y="319" as="targetPoint" />
          </mxGeometry>
        </mxCell>
      </root>
    </mxGraphModel>
  </diagram>
</mxfile>
